<svg xmlns="http://www.w3.org/2000/svg" width="18.362" height="12.536" viewBox="0 0 18.362 12.536"><g transform="translate(0.25 0.25)"><path d="M17.6,83.5H.262A.262.262,0,0,0,0,83.762V95.274a.262.262,0,0,0,.262.262H17.6a.262.262,0,0,0,.262-.262V83.762A.262.262,0,0,0,17.6,83.5ZM.523,85.3a1.837,1.837,0,0,0,.3.245l3.114,2.067a.262.262,0,1,0,.289-.436L1.108,85.113a1.305,1.305,0,0,1-.585-1.09H17.339a1.305,1.305,0,0,1-.585,1.09l-7.1,4.714a1.306,1.306,0,0,1-1.447,0L5.094,87.76A.262.262,0,0,0,4.8,88.2L6.8,89.518.818,93.487a1.839,1.839,0,0,0-.3.245Zm0,9.708a1.305,1.305,0,0,1,.585-1.09l6.161-4.091.649.431a1.828,1.828,0,0,0,2.026,0l.649-.431,6.161,4.091a1.305,1.305,0,0,1,.585,1.09Zm16.815-1.281a1.837,1.837,0,0,0-.3-.245l-5.977-3.969,5.977-3.969a1.837,1.837,0,0,0,.3-.245Z" transform="translate(0 -83.5)" fill="#fff"/><path d="M.262,83.25H17.6a.512.512,0,0,1,.512.512V95.274a.512.512,0,0,1-.512.512H.262a.512.512,0,0,1-.512-.512V83.762A.512.512,0,0,1,.262,83.25ZM17.6,95.286a.012.012,0,0,0,.012-.012V83.762a.012.012,0,0,0-.012-.012H.262a.012.012,0,0,0-.012.012V95.274a.012.012,0,0,0,.012.012ZM.523,83.773H17.339a.25.25,0,0,1,.25.25,1.555,1.555,0,0,1-.7,1.3l-7.1,4.714a1.556,1.556,0,0,1-1.724,0L4.955,87.968a.01.01,0,0,0-.016,0,.012.012,0,0,0,0,.016L6.934,89.31a.25.25,0,0,1,0,.417L.957,93.695a1.594,1.594,0,0,0-.255.212.25.25,0,0,1-.428-.175V85.3A.25.25,0,0,1,.7,85.129a1.593,1.593,0,0,0,.255.212L4.07,87.408a.01.01,0,0,0,.016,0,.012.012,0,0,0,0-.016L.97,85.321a1.555,1.555,0,0,1-.7-1.3A.25.25,0,0,1,.523,83.773Zm16.535.5H.8a1.056,1.056,0,0,0,.443.632L4.36,86.972a.512.512,0,1,1-.566.852L.773,85.819v7.4l5.57-3.7L4.666,88.4a.512.512,0,0,1,.566-.852l3.114,2.067a1.056,1.056,0,0,0,1.171,0l7.1-4.714A1.056,1.056,0,0,0,17.059,84.273Zm.28.781a.25.25,0,0,1,.25.25v8.427a.25.25,0,0,1-.428.175,1.594,1.594,0,0,0-.255-.212l-5.977-3.969a.25.25,0,0,1,0-.417l5.977-3.969a1.593,1.593,0,0,0,.255-.212A.25.25,0,0,1,17.339,85.054Zm-.25,8.162v-7.4l-5.57,3.7Zm-9.82-3.635a.25.25,0,0,1,.138.042l.649.431a1.578,1.578,0,0,0,1.75,0l.649-.431a.25.25,0,0,1,.277,0l6.161,4.091a1.555,1.555,0,0,1,.7,1.3.25.25,0,0,1-.25.25H.523a.25.25,0,0,1-.25-.25,1.555,1.555,0,0,1,.7-1.3L7.13,89.624A.25.25,0,0,1,7.269,89.582Zm1.662,1.237a2.075,2.075,0,0,1-1.151-.348l-.511-.339-6.023,4a1.056,1.056,0,0,0-.443.632H17.059a1.056,1.056,0,0,0-.443-.632l-6.022-4-.511.339A2.076,2.076,0,0,1,8.931,90.819Z" transform="translate(0 -83.5)" fill="#fff"/></g></svg>