<svg xmlns="http://www.w3.org/2000/svg" width="423.856" height="42.538" viewBox="0 0 423.856 42.538"><path d="M413.658,8.984c-4.616,0-8.769-1.171-11.395-3.213l-.338-.263,3.1-5.6.463.372a12.934,12.934,0,0,0,7.667,2.452c2.166,0,3.705-.465,4.7-1.421a5.463,5.463,0,0,0,1.429-4.054A10.222,10.222,0,0,1,412.65-.592a12.118,12.118,0,0,1-8.337-3.122,10.632,10.632,0,0,1-2.536-3.614,11.838,11.838,0,0,1-.926-4.685,11.838,11.838,0,0,1,.926-4.685,10.632,10.632,0,0,1,2.536-3.614,12.118,12.118,0,0,1,8.337-3.122,9.968,9.968,0,0,1,6.976,2.456V-23.1h7.216V-3.78c0,4.26-1.159,7.506-3.445,9.647C421.189,7.935,417.912,8.984,413.658,8.984ZM403.219,5.235c2.468,1.751,6.24,2.749,10.439,2.749,3.992,0,7.039-.958,9.056-2.847,2.076-1.944,3.128-4.944,3.128-8.917V-22.1h-5.216v3.84l-.893-1.132a7.53,7.53,0,0,0-3.005-2.285,10.391,10.391,0,0,0-4.078-.758A11.123,11.123,0,0,0,405-19.579a9.638,9.638,0,0,0-2.3,3.276,10.844,10.844,0,0,0-.845,4.291,10.844,10.844,0,0,0,.845,4.291A9.638,9.638,0,0,0,405-4.445a11.123,11.123,0,0,0,7.655,2.853,8.847,8.847,0,0,0,6.77-2.651l.87-.954V-2.94a6.521,6.521,0,0,1-1.74,4.976c-1.195,1.143-2.96,1.7-5.4,1.7a14.334,14.334,0,0,1-7.82-2.318ZM116.508,8.984c-4.616,0-8.769-1.171-11.395-3.213l-.338-.263,3.1-5.6.463.372A12.934,12.934,0,0,0,116,2.734c2.166,0,3.705-.465,4.7-1.421a5.463,5.463,0,0,0,1.429-4.054A10.221,10.221,0,0,1,115.5-.592a12.118,12.118,0,0,1-8.337-3.122,10.632,10.632,0,0,1-2.536-3.614,11.838,11.838,0,0,1-.926-4.685,11.838,11.838,0,0,1,.926-4.685,10.632,10.632,0,0,1,2.536-3.614,12.118,12.118,0,0,1,8.337-3.122,9.968,9.968,0,0,1,6.976,2.456V-23.1h7.216V-3.78c0,4.26-1.159,7.506-3.445,9.647C124.039,7.935,120.762,8.984,116.508,8.984ZM106.069,5.236c2.468,1.751,6.24,2.748,10.439,2.748,3.992,0,7.039-.958,9.056-2.847,2.076-1.944,3.128-4.944,3.128-8.917V-22.1h-5.216v3.84l-.893-1.132a7.529,7.529,0,0,0-3.005-2.285,10.391,10.391,0,0,0-4.078-.758,11.123,11.123,0,0,0-7.655,2.853,9.638,9.638,0,0,0-2.3,3.276,10.844,10.844,0,0,0-.845,4.291,10.844,10.844,0,0,0,.845,4.291,9.638,9.638,0,0,0,2.3,3.276A11.123,11.123,0,0,0,115.5-1.592a8.847,8.847,0,0,0,6.77-2.651l.87-.954V-2.94a6.521,6.521,0,0,1-1.74,4.976c-1.195,1.143-2.96,1.7-5.4,1.7a14.334,14.334,0,0,1-7.82-2.318ZM347.046.836a9.269,9.269,0,0,1-6.563-2.172A8.432,8.432,0,0,1,338.1-7.77v-8.782h-3.486v-6.04H338.1v-5.5h7.552v5.5h5.628v6.04h-5.628v8.7c0,1.624.8,2.482,2.314,2.482a3.916,3.916,0,0,0,2.342-.737l.532-.407,2.14,5.605-.313.225A9.747,9.747,0,0,1,347.046.836ZM335.618-17.552H339.1V-7.77c0,4.976,2.746,7.606,7.942,7.606a9.318,9.318,0,0,0,4.724-1.124l-1.4-3.672a5.116,5.116,0,0,1-2.4.588c-2.075,0-3.314-1.3-3.314-3.482v-9.7h5.628v-4.04h-5.628v-5.5H339.1v5.5h-3.486ZM300.846.836a10.175,10.175,0,0,1-7.306-2.61c-1.894-1.853-2.854-4.563-2.854-8.054V-23.1h7.552v12.3c0,3.338,1.334,4.96,4.078,4.96a4.431,4.431,0,0,0,3.37-1.325,6.115,6.115,0,0,0,1.338-4.265V-23.1h7.552V.5H307.36V-1.483A9.788,9.788,0,0,1,300.846.836ZM291.686-22.1V-9.828c0,3.212.859,5.681,2.553,7.339a9.2,9.2,0,0,0,6.607,2.325,8.625,8.625,0,0,0,6.637-2.853l.877-1.005V-.5h5.216V-22.1h-5.552v10.672a7.062,7.062,0,0,1-1.6,4.943,5.4,5.4,0,0,1-4.106,1.647c-2.317,0-5.078-1.034-5.078-5.96V-22.1ZM274.932.836c-3.735,0-7.779-1.012-10.061-2.519l-.359-.237,2.607-5.616.483.312a14.946,14.946,0,0,0,7.583,2.1c3.658,0,3.658-1.173,3.658-1.558,0-.306-.122-.663-1.026-.99a18.146,18.146,0,0,0-3.159-.632,19.073,19.073,0,0,1-6.168-1.621,6.183,6.183,0,0,1-2.365-2.128,6.6,6.6,0,0,1-.932-3.575,6.771,6.771,0,0,1,2.964-5.666,13.645,13.645,0,0,1,7.994-2.142,18.855,18.855,0,0,1,8.948,2.043l.392.231-2.606,5.563-.47-.266a12.385,12.385,0,0,0-6.264-1.615c-2.317,0-3.7.6-3.7,1.6,0,1.032,1.634,1.361,4.326,1.781a19.14,19.14,0,0,1,6.09,1.65,6.135,6.135,0,0,1,2.321,2.1,6.469,6.469,0,0,1,.914,3.5,6.6,6.6,0,0,1-3.012,5.576A14.286,14.286,0,0,1,274.932.836Zm-9.146-3.127a19.6,19.6,0,0,0,9.146,2.127,13.317,13.317,0,0,0,7.584-1.926A5.637,5.637,0,0,0,285.1-6.846a5.417,5.417,0,0,0-.76-2.967,5.082,5.082,0,0,0-1.952-1.753,18.423,18.423,0,0,0-5.767-1.54,18.712,18.712,0,0,1-3.448-.74c-1.144-.433-1.724-1.115-1.724-2.029,0-.782.458-2.6,4.7-2.6a13.58,13.58,0,0,1,6.282,1.489l1.761-3.759a18.8,18.8,0,0,0-8.043-1.686,12.674,12.674,0,0,0-7.409,1.953,5.807,5.807,0,0,0-2.549,4.855,5.622,5.622,0,0,0,.778,3.042,5.129,5.129,0,0,0,1.992,1.78A18.354,18.354,0,0,0,274.8-9.29a18.68,18.68,0,0,1,3.354.681c1.118.4,1.686,1.054,1.686,1.93a2.122,2.122,0,0,1-1.208,1.942,7.435,7.435,0,0,1-3.45.616,16.318,16.318,0,0,1-7.636-1.967ZM218.19.836c-7.493,0-12.932-5.1-12.932-12.134S210.7-23.432,218.19-23.432a13.383,13.383,0,0,1,9.23,3.4,11.787,11.787,0,0,1,3.66,8.734,11.787,11.787,0,0,1-3.66,8.734A13.383,13.383,0,0,1,218.19.836Zm0-23.268a12.457,12.457,0,0,0-8.569,3.131,10.334,10.334,0,0,0-2.471,3.511,11.328,11.328,0,0,0-.892,4.491,11.328,11.328,0,0,0,.892,4.491A10.334,10.334,0,0,0,209.621-3.3,12.457,12.457,0,0,0,218.19-.164a12.389,12.389,0,0,0,8.547-3.131,10.314,10.314,0,0,0,2.457-3.511,11.4,11.4,0,0,0,.886-4.492,11.4,11.4,0,0,0-.886-4.492,10.314,10.314,0,0,0-2.457-3.511A12.389,12.389,0,0,0,218.19-22.432ZM192.15.836a13.735,13.735,0,0,1-9.4-3.4,11.706,11.706,0,0,1-3.7-8.736,11.706,11.706,0,0,1,3.7-8.736,13.735,13.735,0,0,1,9.4-3.4,13.2,13.2,0,0,1,6.472,1.555,9.6,9.6,0,0,1,4.107,4.5l.188.424L197-13.777l-.241-.424a5.77,5.77,0,0,0-2.046-2.174,5.036,5.036,0,0,0-2.6-.681,5.36,5.36,0,0,0-3.851,1.5,5.87,5.87,0,0,0-1.571,4.257,5.87,5.87,0,0,0,1.571,4.257,5.36,5.36,0,0,0,3.851,1.5,5.065,5.065,0,0,0,4.645-2.852l.241-.433,5.925,3.232-.192.423a9.67,9.67,0,0,1-4.105,4.44A13.2,13.2,0,0,1,192.15.836Zm0-23.268a12.742,12.742,0,0,0-8.717,3.133,10.277,10.277,0,0,0-2.488,3.51,11.283,11.283,0,0,0-.894,4.49,11.283,11.283,0,0,0,.894,4.49,10.277,10.277,0,0,0,2.488,3.51A12.742,12.742,0,0,0,192.15-.164,12.2,12.2,0,0,0,198.131-1.6a8.707,8.707,0,0,0,3.483-3.564l-4.241-2.313a6,6,0,0,1-5.265,2.939,6.351,6.351,0,0,1-4.56-1.8,6.844,6.844,0,0,1-1.862-4.962,6.844,6.844,0,0,1,1.862-4.962,6.351,6.351,0,0,1,4.56-1.8,6.041,6.041,0,0,1,5.263,2.943l4.245-2.281C199.988-20.6,196.567-22.432,192.15-22.432ZM75.18.836C71.445.836,67.4-.176,65.119-1.683l-.359-.237,2.607-5.616.483.312a14.946,14.946,0,0,0,7.583,2.1c3.658,0,3.658-1.173,3.658-1.558,0-.306-.122-.663-1.026-.99A18.146,18.146,0,0,0,74.905-8.3a19.073,19.073,0,0,1-6.168-1.621,6.183,6.183,0,0,1-2.365-2.128,6.6,6.6,0,0,1-.932-3.575A6.771,6.771,0,0,1,68.4-21.29,13.645,13.645,0,0,1,76.4-23.432a18.855,18.855,0,0,1,8.948,2.043l.392.231-2.606,5.563-.47-.266A12.385,12.385,0,0,0,76.4-17.476c-2.317,0-3.7.6-3.7,1.6,0,1.032,1.634,1.361,4.326,1.781a19.141,19.141,0,0,1,6.09,1.65,6.135,6.135,0,0,1,2.321,2.1,6.468,6.468,0,0,1,.914,3.5A6.6,6.6,0,0,1,83.336-1.27,14.286,14.286,0,0,1,75.18.836ZM66.034-2.291A19.6,19.6,0,0,0,75.18-.164,13.317,13.317,0,0,0,82.764-2.09a5.637,5.637,0,0,0,2.584-4.756,5.417,5.417,0,0,0-.76-2.967,5.082,5.082,0,0,0-1.952-1.753,18.423,18.423,0,0,0-5.767-1.54,18.713,18.713,0,0,1-3.448-.74c-1.144-.433-1.724-1.115-1.724-2.029,0-.782.458-2.6,4.7-2.6a13.58,13.58,0,0,1,6.282,1.489l1.761-3.759A18.8,18.8,0,0,0,76.4-22.432a12.674,12.674,0,0,0-7.409,1.953,5.807,5.807,0,0,0-2.549,4.855,5.622,5.622,0,0,0,.778,3.042A5.129,5.129,0,0,0,69.21-10.8,18.353,18.353,0,0,0,75.05-9.29a18.68,18.68,0,0,1,3.354.681c1.118.4,1.686,1.054,1.686,1.93a2.122,2.122,0,0,1-1.208,1.942,7.435,7.435,0,0,1-3.451.616A16.319,16.319,0,0,1,67.8-6.087ZM50.61.836a16.174,16.174,0,0,1-5.479-.9,12.38,12.38,0,0,1-4.236-2.527,11.138,11.138,0,0,1-2.723-3.856,12.3,12.3,0,0,1-.956-4.849,11.915,11.915,0,0,1,3.6-8.714,12.816,12.816,0,0,1,8.956-3.42,12.464,12.464,0,0,1,8.714,3.273,12.023,12.023,0,0,1,3.546,8.945c0,.38-.043.846-.084,1.3-.016.179-.032.349-.044.5l-.035.462h-16.9a4.881,4.881,0,0,0,1.806,2.415,6.892,6.892,0,0,0,4,1.121A7.209,7.209,0,0,0,56.1-7.461l.368-.348,4.134,4.483-.3.338A10.543,10.543,0,0,1,56.2-.128,15.22,15.22,0,0,1,50.61.836Zm-.84-23.268a11.822,11.822,0,0,0-8.264,3.142,10.924,10.924,0,0,0-3.29,7.992,11.31,11.31,0,0,0,.876,4.457,10.145,10.145,0,0,0,2.48,3.512A13.046,13.046,0,0,0,50.61-.164c3.719,0,6.624-1.06,8.644-3.154L56.415-6.4a8.125,8.125,0,0,1-5.637,1.982,7.879,7.879,0,0,1-4.578-1.3,5.936,5.936,0,0,1-2.378-3.622l-.136-.609h17.26l.005-.057c.039-.429.08-.873.08-1.207a11.048,11.048,0,0,0-3.237-8.223A11.472,11.472,0,0,0,49.77-22.432ZM395.678.5h-7.552V-11.928a5.463,5.463,0,0,0-1.075-3.7,3.833,3.833,0,0,0-3-1.13,4.738,4.738,0,0,0-3.529,1.332,5.954,5.954,0,0,0-1.389,4.258V.5h-7.552V-23.1h7.258v1.979a10.782,10.782,0,0,1,6.976-2.315,9.794,9.794,0,0,1,7.033,2.558,8.78,8.78,0,0,1,2.089,3.3,13.5,13.5,0,0,1,.744,4.64Zm-6.552-1h5.552V-12.936c0-3.15-.852-5.58-2.532-7.224a8.822,8.822,0,0,0-6.334-2.272,9.423,9.423,0,0,0-7.107,2.819l-.869.952V-22.1h-5.258V-.5h5.552V-11.172a6.9,6.9,0,0,1,1.667-4.95,5.709,5.709,0,0,1,4.251-1.64A4.782,4.782,0,0,1,387.8-16.3a6.4,6.4,0,0,1,1.329,4.37ZM364.808.5h-7.552V-23.1h7.552Zm-6.552-1h5.552V-22.1h-5.552ZM328.9.5h-7.552V-31.664H328.9Zm-6.552-1H327.9V-30.664h-5.552ZM260.228.5h-7.552V-11.928a5.463,5.463,0,0,0-1.075-3.7,3.833,3.833,0,0,0-3-1.13,4.738,4.738,0,0,0-3.529,1.332,5.953,5.953,0,0,0-1.389,4.258V.5h-7.552V-23.1h7.258v1.979a10.782,10.782,0,0,1,6.976-2.315,9.794,9.794,0,0,1,7.033,2.558,8.78,8.78,0,0,1,2.089,3.3,13.5,13.5,0,0,1,.744,4.64Zm-6.552-1h5.552V-12.936c0-3.15-.852-5.58-2.532-7.224a8.822,8.822,0,0,0-6.334-2.272,9.423,9.423,0,0,0-7.107,2.819l-.869.952V-22.1h-5.258V-.5h5.552V-11.172a6.9,6.9,0,0,1,1.667-4.95,5.709,5.709,0,0,1,4.251-1.64,4.782,4.782,0,0,1,3.749,1.464,6.4,6.4,0,0,1,1.329,4.37ZM160.562.5H153.01V-11.928a5.463,5.463,0,0,0-1.075-3.7,3.833,3.833,0,0,0-3-1.13A4.738,4.738,0,0,0,145.4-15.43a5.953,5.953,0,0,0-1.389,4.258V.5h-7.552V-23.1h7.258v1.979a10.782,10.782,0,0,1,6.976-2.315,9.794,9.794,0,0,1,7.033,2.558,8.78,8.78,0,0,1,2.089,3.3,13.505,13.505,0,0,1,.744,4.64Zm-6.552-1h5.552V-12.936c0-3.15-.852-5.58-2.532-7.224a8.822,8.822,0,0,0-6.334-2.272,9.423,9.423,0,0,0-7.107,2.819l-.869.952V-22.1h-5.258V-.5h5.552V-11.172a6.9,6.9,0,0,1,1.667-4.95,5.709,5.709,0,0,1,4.251-1.64,4.782,4.782,0,0,1,3.749,1.464,6.4,6.4,0,0,1,1.329,4.37Zm-55.4,1H91.06V-23.1h7.552ZM92.06-.5h5.552V-22.1H92.06ZM16.842.5H2.986V-29.9H16.842c10,0,16.712,6.108,16.712,15.2S26.838.5,16.842.5ZM3.986-.5H16.842a19.614,19.614,0,0,0,6.427-1.017,14.385,14.385,0,0,0,4.951-2.866A13.427,13.427,0,0,0,32.554-14.7a13.427,13.427,0,0,0-4.333-10.317,14.385,14.385,0,0,0-4.951-2.866A19.614,19.614,0,0,0,16.842-28.9H3.986Zm214.2-4.04A6.151,6.151,0,0,1,213.7-6.357a6.932,6.932,0,0,1-1.81-4.941,6.932,6.932,0,0,1,1.81-4.941,6.151,6.151,0,0,1,4.486-1.817,6.09,6.09,0,0,1,4.467,1.819,6.97,6.97,0,0,1,1.787,4.939,6.97,6.97,0,0,1-1.787,4.939A6.09,6.09,0,0,1,218.19-4.54Zm0-12.516c-3.168,0-5.3,2.314-5.3,5.758s2.128,5.758,5.3,5.758a5.033,5.033,0,0,0,3.744-1.51,6,6,0,0,0,1.51-4.248,6,6,0,0,0-1.51-4.248A5.033,5.033,0,0,0,218.19-17.056ZM16.506-5.086H9.79V-24.314h6.716c6.172,0,10.16,3.774,10.16,9.614S22.678-5.086,16.506-5.086Zm-5.716-1h5.716A9.556,9.556,0,0,0,23.184-8.4a8.351,8.351,0,0,0,2.482-6.3A8.351,8.351,0,0,0,23.184-21a9.556,9.556,0,0,0-6.678-2.312H10.79Zm403.162.118a6.77,6.77,0,0,1-4.611-1.659,5.849,5.849,0,0,1-1.853-4.385,5.849,5.849,0,0,1,1.853-4.385,6.77,6.77,0,0,1,4.611-1.659,6.7,6.7,0,0,1,4.592,1.661,5.874,5.874,0,0,1,1.83,4.383,5.874,5.874,0,0,1-1.83,4.383A6.7,6.7,0,0,1,413.952-5.968Zm0-11.088a5.777,5.777,0,0,0-3.936,1.4,4.8,4.8,0,0,0-1.528,3.648,4.8,4.8,0,0,0,1.528,3.648,5.777,5.777,0,0,0,3.936,1.4,5.709,5.709,0,0,0,3.913-1.395,4.822,4.822,0,0,0,1.509-3.649,4.822,4.822,0,0,0-1.509-3.649A5.709,5.709,0,0,0,413.952-17.056ZM116.8-5.968a6.77,6.77,0,0,1-4.611-1.659,5.849,5.849,0,0,1-1.853-4.385,5.849,5.849,0,0,1,1.853-4.385,6.77,6.77,0,0,1,4.611-1.659,6.7,6.7,0,0,1,4.592,1.661,5.874,5.874,0,0,1,1.83,4.383,5.874,5.874,0,0,1-1.83,4.383A6.7,6.7,0,0,1,116.8-5.968Zm0-11.088a5.777,5.777,0,0,0-3.936,1.4,4.8,4.8,0,0,0-1.528,3.648,4.8,4.8,0,0,0,1.528,3.648,5.777,5.777,0,0,0,3.936,1.4,5.709,5.709,0,0,0,3.913-1.395,4.822,4.822,0,0,0,1.509-3.649,4.822,4.822,0,0,0-1.509-3.649A5.709,5.709,0,0,0,116.8-17.056ZM55.943-12.772H43.64l.092-.579a6.029,6.029,0,0,1,2.02-3.742,6.2,6.2,0,0,1,4.06-1.383,5.872,5.872,0,0,1,6.038,5.124Zm-11.1-1h9.9a4.935,4.935,0,0,0-1.551-2.542,5.114,5.114,0,0,0-3.377-1.162A5.211,5.211,0,0,0,46.4-16.328,4.883,4.883,0,0,0,44.84-13.772ZM361.032-25.246a4.818,4.818,0,0,1-3.289-1.187,3.978,3.978,0,0,1-1.285-2.967,3.978,3.978,0,0,1,1.285-2.967,4.818,4.818,0,0,1,3.289-1.187,4.927,4.927,0,0,1,3.281,1.133,3.8,3.8,0,0,1,1.293,2.895,4.16,4.16,0,0,1-1.281,3.073A4.756,4.756,0,0,1,361.032-25.246Zm0-7.308a3.825,3.825,0,0,0-2.612.923,2.989,2.989,0,0,0-.962,2.231,2.989,2.989,0,0,0,.962,2.231,3.825,3.825,0,0,0,2.612.923,3.715,3.715,0,0,0,2.608-.935,3.129,3.129,0,0,0,.966-2.345C364.606-31.309,363.136-32.554,361.032-32.554Zm-266.2,7.308a4.818,4.818,0,0,1-3.289-1.187A3.978,3.978,0,0,1,90.262-29.4a3.978,3.978,0,0,1,1.285-2.967,4.818,4.818,0,0,1,3.289-1.187,4.927,4.927,0,0,1,3.281,1.133,3.8,3.8,0,0,1,1.293,2.895,4.16,4.16,0,0,1-1.281,3.073A4.757,4.757,0,0,1,94.836-25.246Zm0-7.308a3.826,3.826,0,0,0-2.612.923,2.989,2.989,0,0,0-.962,2.231,2.989,2.989,0,0,0,.962,2.231,3.826,3.826,0,0,0,2.612.923,3.715,3.715,0,0,0,2.608-.935,3.129,3.129,0,0,0,.966-2.345C98.41-31.309,96.94-32.554,94.836-32.554Z" transform="translate(-2.986 33.554)" fill="#333"/></svg>