<svg xmlns="http://www.w3.org/2000/svg" width="125.143" height="31.992" viewBox="0 0 125.143 31.992"><path d="M3.2-30.229H9.516V-5.435H24.486V0H3.2ZM44.326.841q-6.48,0-9.905-3.527-4.594-4.327-4.594-12.469,0-8.306,4.594-12.469,3.425-3.527,9.905-3.527t9.905,3.527Q58.8-23.461,58.8-15.155q0,8.142-4.573,12.469Q50.806.841,44.326.841ZM50.293-7.28q2.194-2.769,2.194-7.875,0-5.086-2.2-7.865A7.2,7.2,0,0,0,44.326-25.8a7.3,7.3,0,0,0-5.988,2.769Q36.1-20.262,36.1-15.155T38.337-7.28a7.3,7.3,0,0,0,5.988,2.769A7.244,7.244,0,0,0,50.293-7.28ZM84.262-.738A11.54,11.54,0,0,1,78.11.8a12.783,12.783,0,0,1-9.844-4.163q-4-4.184-4-11.443,0-7.342,4.04-11.771a13.768,13.768,0,0,1,10.685-4.43,13.967,13.967,0,0,1,9.259,2.922,10.866,10.866,0,0,1,4.009,7.291H86.047a5.918,5.918,0,0,0-3.507-4.327,8.613,8.613,0,0,0-3.466-.677,7.527,7.527,0,0,0-6,2.758q-2.348,2.758-2.348,8.3,0,5.578,2.543,7.9a8.351,8.351,0,0,0,5.783,2.317,7.47,7.47,0,0,0,5.209-1.835,7.934,7.934,0,0,0,2.5-4.809H79.771v-5.045H92.363V0H88.179l-.636-3.773A14.484,14.484,0,0,1,84.262-.738Zm29.6,1.579q-6.48,0-9.905-3.527-4.594-4.327-4.594-12.469,0-8.306,4.594-12.469,3.425-3.527,9.905-3.527t9.905,3.527q4.573,4.163,4.573,12.469,0,8.142-4.573,12.469Q120.344.841,113.863.841Zm5.968-8.121q2.194-2.769,2.194-7.875,0-5.086-2.2-7.865a7.2,7.2,0,0,0-5.958-2.779,7.3,7.3,0,0,0-5.988,2.769q-2.235,2.769-2.235,7.875t2.235,7.875a7.3,7.3,0,0,0,5.988,2.769A7.244,7.244,0,0,0,119.831-7.28Z" transform="translate(-3.199 31.151)" fill="#fff"/></svg>