<svg xmlns="http://www.w3.org/2000/svg" width="134.38" height="199.52" viewBox="0 0 134.38 199.52"><path d="M-48.76-57.94A14.1,14.1,0,0,1-43-56.777a14.886,14.886,0,0,1,4.51,3.063l.007.008A12.9,12.9,0,0,1-34.66-44.56v4.5h-9.16V-42.4a8.262,8.262,0,0,0-1.24-4.568,4.383,4.383,0,0,0-4.02-1.812,4.676,4.676,0,0,0-2.458.566,4.895,4.895,0,0,0-1.521,1.444,6.3,6.3,0,0,0-.809,2.18A14.979,14.979,0,0,0-54.1-41.92a26.7,26.7,0,0,0,.117,2.747,4.844,4.844,0,0,0,.542,1.814,3.974,3.974,0,0,0,1.247,1.349,12.44,12.44,0,0,0,2.42,1.226l6.236,2.479A16.03,16.03,0,0,1-39-29.784a11.094,11.094,0,0,1,2.763,3.393l.011.023a15.713,15.713,0,0,1,1.241,4.5,43.848,43.848,0,0,1,.324,5.625,29.953,29.953,0,0,1-.733,6.794A14.631,14.631,0,0,1-37.8-4.022,12.065,12.065,0,0,1-42.387-.348,16.082,16.082,0,0,1-49.24.98,15.089,15.089,0,0,1-54.948-.1a13.686,13.686,0,0,1-4.565-2.99,14.578,14.578,0,0,1-3.024-4.431A13.552,13.552,0,0,1-63.66-13.04v-3.54h9.16v3.06a6.2,6.2,0,0,0,1.223,3.744c.787,1.074,2.108,1.6,4.037,1.6a6.725,6.725,0,0,0,3.01-.544,3.784,3.784,0,0,0,1.6-1.524,5.854,5.854,0,0,0,.7-2.47c.079-1.022.119-2.18.119-3.442a34.161,34.161,0,0,0-.157-3.625,5.914,5.914,0,0,0-.574-2.121,4.024,4.024,0,0,0-1.309-1.267,18.567,18.567,0,0,0-2.374-1.166l-5.836-2.4c-3.617-1.48-6.086-3.484-7.336-5.957A20.254,20.254,0,0,1-63.26-41.84a21.289,21.289,0,0,1,.9-6.226A14.392,14.392,0,0,1-59.625-53.2a12.652,12.652,0,0,1,4.45-3.453A14.843,14.843,0,0,1-48.76-57.94Zm9.563,4.93A13.892,13.892,0,0,0-43.4-55.863,13.1,13.1,0,0,0-48.76-56.94a13.86,13.86,0,0,0-5.985,1.191,11.659,11.659,0,0,0-4.106,3.183l-.007.009A13.4,13.4,0,0,0-61.4-47.774a20.29,20.29,0,0,0-.858,5.934,19.281,19.281,0,0,0,1.746,8.694c1.139,2.252,3.434,4.1,6.823,5.483l5.841,2.4a19.557,19.557,0,0,1,2.51,1.235,5.014,5.014,0,0,1,1.642,1.6l.017.029a6.848,6.848,0,0,1,.7,2.5,35.129,35.129,0,0,1,.163,3.735c0,1.287-.041,2.471-.121,3.518a6.839,6.839,0,0,1-.824,2.89,4.819,4.819,0,0,1-2,1.916,7.56,7.56,0,0,1-3.47.656c-2.238,0-3.868-.674-4.843-2A7.185,7.185,0,0,1-55.5-13.52v-2.06h-7.16v2.54a12.559,12.559,0,0,0,1.037,5.118,13.582,13.582,0,0,0,2.816,4.129,12.693,12.693,0,0,0,4.235,2.77,14.1,14.1,0,0,0,5.332,1,15.1,15.1,0,0,0,6.427-1.232A11.074,11.074,0,0,0-38.6-4.62a13.64,13.64,0,0,0,2.233-5.054,28.955,28.955,0,0,0,.707-6.566,42.853,42.853,0,0,0-.316-5.495,14.731,14.731,0,0,0-1.153-4.2,10.1,10.1,0,0,0-2.511-3.076A15.053,15.053,0,0,0-43.9-31.373l-.006,0-6.24-2.48a13.408,13.408,0,0,1-2.621-1.334,4.963,4.963,0,0,1-1.553-1.691,5.836,5.836,0,0,1-.658-2.186A27.662,27.662,0,0,1-55.1-41.92a15.979,15.979,0,0,1,.248-2.849,7.294,7.294,0,0,1,.946-2.533l.01-.015a5.885,5.885,0,0,1,1.834-1.748,5.64,5.64,0,0,1,2.982-.714,5.369,5.369,0,0,1,4.86,2.268,9.242,9.242,0,0,1,1.4,5.112v1.34h7.16v-3.5a11.565,11.565,0,0,0-.881-4.487A13.03,13.03,0,0,0-39.2-53.01Zm8.737-4.45H-2.42v8.68h-9.44V.5h-9.16V-48.78h-9.44Zm27.04,1H-29.46v6.68h9.44V-.5h7.16V-49.78h9.44Zm6.8-1H28.7v8.68H12.54v15.72H26.62v8.68H12.54V-8.66H28.7V.5H3.38Zm24.32,1H4.38V-.5H27.7V-7.66H11.54V-25.38H25.62v-6.68H11.54V-49.78H27.7Zm8.48-1H48.92A18.775,18.775,0,0,1,55-56.553,11.9,11.9,0,0,1,59.846-53.3a12.752,12.752,0,0,1,3,5.451A33.4,33.4,0,0,1,63.66-39.6a40.959,40.959,0,0,1-.447,6.562A14.109,14.109,0,0,1,61.267-27.9,12.459,12.459,0,0,1,56.6-23.363,15.629,15.629,0,0,1,49-21.74H45.34V.5H36.18ZM49-22.74a14.667,14.667,0,0,0,7.117-1.5,11.471,11.471,0,0,0,4.295-4.18l0-.006A13.113,13.113,0,0,0,62.227-33.2a39.982,39.982,0,0,0,.433-6.4,32.455,32.455,0,0,0-.783-7.991,11.762,11.762,0,0,0-2.763-5.029,10.916,10.916,0,0,0-4.436-2.987,17.786,17.786,0,0,0-5.757-.853H37.18V-.5h7.16V-22.74ZM44.34-49.78h4.74A8.014,8.014,0,0,1,53.005-49a5.054,5.054,0,0,1,2.127,2.3,8.754,8.754,0,0,1,.767,3.351c.053,1.2.08,2.488.08,3.822,0,1.445-.041,2.775-.121,3.954a7.842,7.842,0,0,1-.815,3.156,5.042,5.042,0,0,1-2.21,2.212,8.727,8.727,0,0,1-4.074.778H44.34Zm4.42,19.36a7.911,7.911,0,0,0,3.606-.662,4.008,4.008,0,0,0,1.787-1.782l.006-.012a6.855,6.855,0,0,0,.7-2.759c.079-1.157.119-2.464.119-3.886,0-1.32-.027-2.591-.079-3.778a7.766,7.766,0,0,0-.673-2.969,4.019,4.019,0,0,0-1.713-1.857,7.193,7.193,0,0,0-3.435-.656H45.34v18.36ZM-37.08,10.26a29.4,29.4,0,0,1,10.528,1.923,26.559,26.559,0,0,1,8.9,5.6,27.577,27.577,0,0,1,6.142,8.8A28.615,28.615,0,0,1-9.22,38.3v75.24a28.615,28.615,0,0,1-2.293,11.724,27.577,27.577,0,0,1-6.142,8.8,26.559,26.559,0,0,1-8.9,5.6A29.4,29.4,0,0,1-37.08,141.58a29.4,29.4,0,0,1-10.528-1.923,26.559,26.559,0,0,1-8.9-5.6,27.577,27.577,0,0,1-6.142-8.8A28.615,28.615,0,0,1-64.94,113.54V38.3a28.615,28.615,0,0,1,2.293-11.724,27.577,27.577,0,0,1,6.142-8.8,26.559,26.559,0,0,1,8.9-5.6A29.4,29.4,0,0,1-37.08,10.26Zm0,130.32a28.405,28.405,0,0,0,10.172-1.857,25.565,25.565,0,0,0,8.564-5.385,26.582,26.582,0,0,0,5.918-8.482A27.626,27.626,0,0,0-10.22,113.54V38.3a27.626,27.626,0,0,0-2.207-11.316A26.582,26.582,0,0,0-18.345,18.5a25.565,25.565,0,0,0-8.564-5.385A28.405,28.405,0,0,0-37.08,11.26a28.405,28.405,0,0,0-10.172,1.857A25.565,25.565,0,0,0-55.815,18.5a26.582,26.582,0,0,0-5.918,8.482A27.626,27.626,0,0,0-63.94,38.3v75.24a27.626,27.626,0,0,0,2.207,11.316,26.582,26.582,0,0,0,5.918,8.482,25.565,25.565,0,0,0,8.564,5.385A28.405,28.405,0,0,0-37.08,140.58ZM31.3,11.34H51.792l-27.54,91.8H41.26V66.6H60.62v36.54h8.82v18.28H60.62V140.5H41.26V121.42H4.72V103.569l.02-.068Zm19.144,1H32.056L5.72,103.711V120.42H42.26V139.5H59.62V120.42h8.82V104.14H59.62V67.6H42.26v36.54H22.908ZM-37.08,28.62a9.131,9.131,0,0,1,6.84,2.763A9.6,9.6,0,0,1-27.58,38.3v75.24a9.6,9.6,0,0,1-2.66,6.917,9.131,9.131,0,0,1-6.84,2.763,9.131,9.131,0,0,1-6.84-2.763,9.6,9.6,0,0,1-2.66-6.917V38.3a9.6,9.6,0,0,1,2.66-6.917A9.131,9.131,0,0,1-37.08,28.62Zm0,93.6a8.166,8.166,0,0,0,6.12-2.457,8.634,8.634,0,0,0,2.38-6.223V38.3a8.634,8.634,0,0,0-2.38-6.223,8.166,8.166,0,0,0-6.12-2.457,8.166,8.166,0,0,0-6.12,2.457A8.634,8.634,0,0,0-45.58,38.3v75.24a8.634,8.634,0,0,0,2.38,6.223A8.166,8.166,0,0,0-37.08,122.22Z" transform="translate(64.94 57.94)" fill="#222" opacity="0.3"/></svg>