<svg xmlns="http://www.w3.org/2000/svg" width="129.88" height="199.52" viewBox="0 0 129.88 199.52"><path d="M-48.76-57.94A14.1,14.1,0,0,1-43-56.777a14.886,14.886,0,0,1,4.51,3.063l.007.008A12.9,12.9,0,0,1-34.66-44.56v4.5h-9.16V-42.4a8.262,8.262,0,0,0-1.24-4.568,4.383,4.383,0,0,0-4.02-1.812,4.676,4.676,0,0,0-2.458.566,4.895,4.895,0,0,0-1.521,1.444,6.3,6.3,0,0,0-.809,2.18A14.979,14.979,0,0,0-54.1-41.92a26.7,26.7,0,0,0,.117,2.747,4.844,4.844,0,0,0,.542,1.814,3.974,3.974,0,0,0,1.247,1.349,12.44,12.44,0,0,0,2.42,1.226l6.236,2.479A16.03,16.03,0,0,1-39-29.784a11.094,11.094,0,0,1,2.763,3.393l.011.023a15.713,15.713,0,0,1,1.241,4.5,43.848,43.848,0,0,1,.324,5.625,29.953,29.953,0,0,1-.733,6.794A14.631,14.631,0,0,1-37.8-4.022,12.065,12.065,0,0,1-42.387-.348,16.082,16.082,0,0,1-49.24.98,15.089,15.089,0,0,1-54.948-.1a13.686,13.686,0,0,1-4.565-2.99,14.578,14.578,0,0,1-3.024-4.431A13.552,13.552,0,0,1-63.66-13.04v-3.54h9.16v3.06a6.2,6.2,0,0,0,1.223,3.744c.787,1.074,2.108,1.6,4.037,1.6a6.725,6.725,0,0,0,3.01-.544,3.784,3.784,0,0,0,1.6-1.524,5.854,5.854,0,0,0,.7-2.47c.079-1.022.119-2.18.119-3.442a34.161,34.161,0,0,0-.157-3.625,5.914,5.914,0,0,0-.574-2.121,4.024,4.024,0,0,0-1.309-1.267,18.567,18.567,0,0,0-2.374-1.166l-5.836-2.4c-3.617-1.48-6.086-3.484-7.336-5.957A20.254,20.254,0,0,1-63.26-41.84a21.289,21.289,0,0,1,.9-6.226A14.392,14.392,0,0,1-59.625-53.2a12.652,12.652,0,0,1,4.45-3.453A14.843,14.843,0,0,1-48.76-57.94Zm9.563,4.93A13.892,13.892,0,0,0-43.4-55.863,13.1,13.1,0,0,0-48.76-56.94a13.86,13.86,0,0,0-5.985,1.191,11.659,11.659,0,0,0-4.106,3.183l-.007.009A13.4,13.4,0,0,0-61.4-47.774a20.29,20.29,0,0,0-.858,5.934,19.281,19.281,0,0,0,1.746,8.694c1.139,2.252,3.434,4.1,6.823,5.483l5.841,2.4a19.557,19.557,0,0,1,2.51,1.235,5.014,5.014,0,0,1,1.642,1.6l.017.029a6.848,6.848,0,0,1,.7,2.5,35.129,35.129,0,0,1,.163,3.735c0,1.287-.041,2.471-.121,3.518a6.839,6.839,0,0,1-.824,2.89,4.819,4.819,0,0,1-2,1.916,7.56,7.56,0,0,1-3.47.656c-2.238,0-3.868-.674-4.843-2A7.185,7.185,0,0,1-55.5-13.52v-2.06h-7.16v2.54a12.559,12.559,0,0,0,1.037,5.118,13.582,13.582,0,0,0,2.816,4.129,12.693,12.693,0,0,0,4.235,2.77,14.1,14.1,0,0,0,5.332,1,15.1,15.1,0,0,0,6.427-1.232A11.074,11.074,0,0,0-38.6-4.62a13.64,13.64,0,0,0,2.233-5.054,28.955,28.955,0,0,0,.707-6.566,42.853,42.853,0,0,0-.316-5.495,14.731,14.731,0,0,0-1.153-4.2,10.1,10.1,0,0,0-2.511-3.076A15.053,15.053,0,0,0-43.9-31.373l-.006,0-6.24-2.48a13.408,13.408,0,0,1-2.621-1.334,4.963,4.963,0,0,1-1.553-1.691,5.836,5.836,0,0,1-.658-2.186A27.662,27.662,0,0,1-55.1-41.92a15.979,15.979,0,0,1,.248-2.849,7.294,7.294,0,0,1,.946-2.533l.01-.015a5.885,5.885,0,0,1,1.834-1.748,5.64,5.64,0,0,1,2.982-.714,5.369,5.369,0,0,1,4.86,2.268,9.242,9.242,0,0,1,1.4,5.112v1.34h7.16v-3.5a11.565,11.565,0,0,0-.881-4.487A13.03,13.03,0,0,0-39.2-53.01Zm8.737-4.45H-2.42v8.68h-9.44V.5h-9.16V-48.78h-9.44Zm27.04,1H-29.46v6.68h9.44V-.5h7.16V-49.78h9.44Zm6.8-1H28.7v8.68H12.54v15.72H26.62v8.68H12.54V-8.66H28.7V.5H3.38Zm24.32,1H4.38V-.5H27.7V-7.66H11.54V-25.38H25.62v-6.68H11.54V-49.78H27.7Zm8.48-1H48.92A18.775,18.775,0,0,1,55-56.553,11.9,11.9,0,0,1,59.846-53.3a12.752,12.752,0,0,1,3,5.451A33.4,33.4,0,0,1,63.66-39.6a40.959,40.959,0,0,1-.447,6.562A14.109,14.109,0,0,1,61.267-27.9,12.459,12.459,0,0,1,56.6-23.363,15.629,15.629,0,0,1,49-21.74H45.34V.5H36.18ZM49-22.74a14.667,14.667,0,0,0,7.117-1.5,11.471,11.471,0,0,0,4.295-4.18l0-.006A13.113,13.113,0,0,0,62.227-33.2a39.982,39.982,0,0,0,.433-6.4,32.455,32.455,0,0,0-.783-7.991,11.762,11.762,0,0,0-2.763-5.029,10.916,10.916,0,0,0-4.436-2.987,17.786,17.786,0,0,0-5.757-.853H37.18V-.5h7.16V-22.74ZM44.34-49.78h4.74A8.014,8.014,0,0,1,53.005-49a5.054,5.054,0,0,1,2.127,2.3,8.754,8.754,0,0,1,.767,3.351c.053,1.2.08,2.488.08,3.822,0,1.445-.041,2.775-.121,3.954a7.842,7.842,0,0,1-.815,3.156,5.042,5.042,0,0,1-2.21,2.212,8.727,8.727,0,0,1-4.074.778H44.34Zm4.42,19.36a7.911,7.911,0,0,0,3.606-.662,4.008,4.008,0,0,0,1.787-1.782l.006-.012a6.855,6.855,0,0,0,.7-2.759c.079-1.157.119-2.464.119-3.886,0-1.32-.027-2.591-.079-3.778a7.766,7.766,0,0,0-.673-2.969,4.019,4.019,0,0,0-1.713-1.857,7.193,7.193,0,0,0-3.435-.656H45.34v18.36ZM-37.08,10.26a29.4,29.4,0,0,1,10.528,1.923,26.559,26.559,0,0,1,8.9,5.6,27.577,27.577,0,0,1,6.142,8.8A28.615,28.615,0,0,1-9.22,38.3v75.24a28.615,28.615,0,0,1-2.293,11.724,27.577,27.577,0,0,1-6.142,8.8,26.559,26.559,0,0,1-8.9,5.6A29.4,29.4,0,0,1-37.08,141.58a29.4,29.4,0,0,1-10.528-1.923,26.559,26.559,0,0,1-8.9-5.6,27.577,27.577,0,0,1-6.142-8.8A28.615,28.615,0,0,1-64.94,113.54V38.3a28.615,28.615,0,0,1,2.293-11.724,27.577,27.577,0,0,1,6.142-8.8,26.559,26.559,0,0,1,8.9-5.6A29.4,29.4,0,0,1-37.08,10.26Zm0,130.32a28.405,28.405,0,0,0,10.172-1.857,25.565,25.565,0,0,0,8.564-5.385,26.582,26.582,0,0,0,5.918-8.482A27.626,27.626,0,0,0-10.22,113.54V38.3a27.626,27.626,0,0,0-2.207-11.316A26.582,26.582,0,0,0-18.345,18.5a25.565,25.565,0,0,0-8.564-5.385A28.405,28.405,0,0,0-37.08,11.26a28.405,28.405,0,0,0-10.172,1.857A25.565,25.565,0,0,0-55.815,18.5a26.582,26.582,0,0,0-5.918,8.482A27.626,27.626,0,0,0-63.94,38.3v75.24a27.626,27.626,0,0,0,2.207,11.316,26.582,26.582,0,0,0,5.918,8.482,25.565,25.565,0,0,0,8.564,5.385A28.405,28.405,0,0,0-37.08,140.58ZM37.44,10.26c5.108,0,9.4,1.023,12.767,3.041a29.426,29.426,0,0,1,7.6,6.141,40,40,0,0,1,3.188,4.373A21.617,21.617,0,0,1,63.3,29.159l0,.01c1.087,3.984,1.638,9.964,1.638,17.772,0,4.43-.091,8.075-.271,10.833a23.186,23.186,0,0,1-1.385,6.993l-.006.015a14.239,14.239,0,0,1-3.638,5.035,40.06,40.06,0,0,1-5.587,3.957,33.718,33.718,0,0,1,5.977,4.681,15.385,15.385,0,0,1,3.441,5.58l0,.008A28.518,28.518,0,0,1,64.76,91.83c.12,2.933.18,6.725.18,11.27,0,4.191-.091,7.715-.271,10.473a54.47,54.47,0,0,1-.818,6.9,21.92,21.92,0,0,1-1.475,4.97A30.264,30.264,0,0,1,60,129.657a29.718,29.718,0,0,1-8.88,8.516c-3.6,2.26-8.387,3.406-14.216,3.406a33.008,33.008,0,0,1-9.322-1.461,25.64,25.64,0,0,1-8.995-4.772,26.022,26.022,0,0,1-6.7-8.623,28.99,28.99,0,0,1-2.663-13V102.78H28.58v10.04a10,10,0,0,0,2.307,6.782,7.333,7.333,0,0,0,2.676,1.961,9.732,9.732,0,0,0,7.034,0,7.333,7.333,0,0,0,2.676-1.961,10.541,10.541,0,0,0,2.307-7.142V94.1c0-4.859-.907-8.059-2.7-9.512l-.017-.014A7.562,7.562,0,0,0,38.726,82.9,59.067,59.067,0,0,0,31.5,82.54H31V65.34h.5c5.4,0,9.155-.64,11.164-1.9C44.6,62.22,45.58,59.274,45.58,54.68V38.12a8.5,8.5,0,0,0-2.29-6.133,8.259,8.259,0,0,0-6.21-2.367,9.82,9.82,0,0,0-3.961.722,5.915,5.915,0,0,0-2.555,2.118,10.192,10.192,0,0,0-1.984,5.66V49.06H9.22V37.94a27.3,27.3,0,0,1,2.2-10.817,26.437,26.437,0,0,1,6.055-8.805,30.152,30.152,0,0,1,8.968-5.857A27.746,27.746,0,0,1,37.44,10.26Zm24.9,19.176a20.622,20.622,0,0,0-2.193-5.091,39.01,39.01,0,0,0-3.11-4.265,28.459,28.459,0,0,0-7.343-5.921c-3.206-1.923-7.328-2.9-12.253-2.9a26.752,26.752,0,0,0-10.6,2.12,29.156,29.156,0,0,0-8.672,5.662,25.444,25.444,0,0,0-5.825,8.475A26.3,26.3,0,0,0,10.22,37.94V48.06H27.58V38.12a11.162,11.162,0,0,1,2.156-6.22c1.472-2.176,3.943-3.28,7.344-3.28a9.219,9.219,0,0,1,6.93,2.673,9.471,9.471,0,0,1,2.57,6.827V54.68a19.057,19.057,0,0,1-.815,6.057A6.5,6.5,0,0,1,43.2,64.283c-2.136,1.343-5.8,2.016-11.2,2.055v15.2a57.834,57.834,0,0,1,6.854.363,8.537,8.537,0,0,1,4.67,1.915,7.616,7.616,0,0,1,2.316,3.886,23.419,23.419,0,0,1,.74,6.395v18.36a11.5,11.5,0,0,1-2.553,7.8,8.782,8.782,0,0,1-6.947,2.962,8.782,8.782,0,0,1-6.947-2.962,10.964,10.964,0,0,1-2.553-7.438v-9.04H10.22v9.94a28.012,28.012,0,0,0,2.557,12.556,25.032,25.032,0,0,0,6.439,8.3,24.646,24.646,0,0,0,8.645,4.588A32.013,32.013,0,0,0,36.9,140.58c5.638,0,10.242-1.095,13.684-3.254a28.719,28.719,0,0,0,8.582-8.227,29.254,29.254,0,0,0,2.3-4.066,20.947,20.947,0,0,0,1.4-4.745v-.006a53.49,53.49,0,0,0,.8-6.775c.178-2.736.269-6.238.269-10.407,0-4.532-.06-8.31-.18-11.23a27.536,27.536,0,0,0-1.234-7.509,14.392,14.392,0,0,0-3.217-5.215,34.556,34.556,0,0,0-6.475-4.963l-.7-.436.708-.418a41.345,41.345,0,0,0,6.134-4.265,13.245,13.245,0,0,0,3.379-4.677,22.228,22.228,0,0,0,1.313-6.68c.178-2.736.269-6.359.269-10.767C63.94,39.224,63.4,33.335,62.339,29.436ZM-37.08,28.62a9.131,9.131,0,0,1,6.84,2.763A9.6,9.6,0,0,1-27.58,38.3v75.24a9.6,9.6,0,0,1-2.66,6.917,9.131,9.131,0,0,1-6.84,2.763,9.131,9.131,0,0,1-6.84-2.763,9.6,9.6,0,0,1-2.66-6.917V38.3a9.6,9.6,0,0,1,2.66-6.917A9.131,9.131,0,0,1-37.08,28.62Zm0,93.6a8.166,8.166,0,0,0,6.12-2.457,8.634,8.634,0,0,0,2.38-6.223V38.3a8.634,8.634,0,0,0-2.38-6.223,8.166,8.166,0,0,0-6.12-2.457,8.166,8.166,0,0,0-6.12,2.457A8.634,8.634,0,0,0-45.58,38.3v75.24a8.634,8.634,0,0,0,2.38,6.223A8.166,8.166,0,0,0-37.08,122.22Z" transform="translate(64.94 57.94)" fill="#222" opacity="0.3"/></svg>