<svg xmlns="http://www.w3.org/2000/svg" width="1810.2" height="150.8" viewBox="0 0 1810.2 150.8"><g transform="translate(393.7 -1153.1)"><path d="M111.2-31.2a51.435,51.435,0,0,1-25.2,6C59.2-25.2,40.6-43.8,40.6-70c0-26.6,18.6-44.8,45.8-44.8,14.2,0,26,5,36.2,15.8l20.8-19.2c-13.6-15.8-34-24.2-58.6-24.2-44.6,0-77,30.2-77,72.4S40.2,2.4,84.2,2.4c20,0,41.2-6.2,56.6-17.8V-72.2H111.2ZM227.8,1.6c34.2,0,59-23,59-55.4s-24.8-55.4-59-55.4-59.2,23-59.2,55.4S193.6,1.6,227.8,1.6Zm0-25.6c-15.6,0-27.6-11.2-27.6-29.8s12-29.8,27.6-29.8,27.4,11.2,27.4,29.8S243.4-24,227.8-24ZM485.2-72.8c11.4-6,18.6-16.8,18.6-30.8,0-21.8-18-36.4-53-36.4H382.4V0h72.4c36.8,0,56-14,56-38.2C510.8-55.8,500.8-67.8,485.2-72.8Zm-38.4-42.8c15.8,0,24.4,5.4,24.4,16.4s-8.6,16.6-24.4,16.6H414.6v-33Zm5.6,91.2H414.6V-59h37.8c16.8,0,25.8,5.6,25.8,17.4C478.2-29.6,469.2-24.4,452.4-24.4Zm140,26c34.2,0,59-23,59-55.4s-24.8-55.4-59-55.4-59.2,23-59.2,55.4S558.2,1.6,592.4,1.6Zm0-25.6c-15.6,0-27.6-11.2-27.6-29.8s12-29.8,27.6-29.8,27.4,11.2,27.4,29.8S608-24,592.4-24ZM680.2,0h31.2V-148.4H680.2ZM826.8-148.4v52.2c-7.8-8.8-19-13-32.2-13-30.4,0-53.8,21.6-53.8,55.4S764.2,1.6,794.6,1.6c14.4,0,25.8-4.6,33.6-14V0H858V-148.4ZM800-24c-15.6,0-27.6-11.2-27.6-29.8s12-29.8,27.6-29.8c15.4,0,27.4,11.2,27.4,29.8S815.4-24,800-24Z" transform="translate(558.5 1301.5)" fill="#2a84ac" opacity="0.113"/><path d="M111.2-31.2a51.435,51.435,0,0,1-25.2,6C59.2-25.2,40.6-43.8,40.6-70c0-26.6,18.6-44.8,45.8-44.8,14.2,0,26,5,36.2,15.8l20.8-19.2c-13.6-15.8-34-24.2-58.6-24.2-44.6,0-77,30.2-77,72.4S40.2,2.4,84.2,2.4c20,0,41.2-6.2,56.6-17.8V-72.2H111.2ZM227.8,1.6c34.2,0,59-23,59-55.4s-24.8-55.4-59-55.4-59.2,23-59.2,55.4S193.6,1.6,227.8,1.6Zm0-25.6c-15.6,0-27.6-11.2-27.6-29.8s12-29.8,27.6-29.8,27.4,11.2,27.4,29.8S243.4-24,227.8-24ZM485.2-72.8c11.4-6,18.6-16.8,18.6-30.8,0-21.8-18-36.4-53-36.4H382.4V0h72.4c36.8,0,56-14,56-38.2C510.8-55.8,500.8-67.8,485.2-72.8Zm-38.4-42.8c15.8,0,24.4,5.4,24.4,16.4s-8.6,16.6-24.4,16.6H414.6v-33Zm5.6,91.2H414.6V-59h37.8c16.8,0,25.8,5.6,25.8,17.4C478.2-29.6,469.2-24.4,452.4-24.4Zm140,26c34.2,0,59-23,59-55.4s-24.8-55.4-59-55.4-59.2,23-59.2,55.4S558.2,1.6,592.4,1.6Zm0-25.6c-15.6,0-27.6-11.2-27.6-29.8s12-29.8,27.6-29.8,27.4,11.2,27.4,29.8S608-24,592.4-24ZM680.2,0h31.2V-148.4H680.2ZM826.8-148.4v52.2c-7.8-8.8-19-13-32.2-13-30.4,0-53.8,21.6-53.8,55.4S764.2,1.6,794.6,1.6c14.4,0,25.8-4.6,33.6-14V0H858V-148.4ZM800-24c-15.6,0-27.6-11.2-27.6-29.8s12-29.8,27.6-29.8c15.4,0,27.4,11.2,27.4,29.8S815.4-24,800-24Z" transform="translate(-401.5 1301.5)" fill="#2a84ac" opacity="0.113"/></g></svg>